<?xml version="1.0" encoding="utf-8"?>
<svg width="107" height="107.682" viewBox="0 0 107 107.682" fill="none" xmlns="http://www.w3.org/2000/svg">
  <defs>
    <linearGradient id="gradient_1" gradientUnits="userSpaceOnUse" x1="15" y1="9" x2="93" y2="102">
      <stop offset="0.048" stop-color="#00A9FF" />
      <stop offset="0.935" stop-color="#004BE6" />
    </linearGradient>
  </defs>
  <g>
    <g>
      <path d="M53.5 0C83.0513 0 107 23.9487 107 53.5L107 53.5C107 83.0513 83.0513 107 53.5 107L53.5 107C23.9487 107 0 83.0513 0 53.5L0 53.5C0 23.9487 23.9487 0 53.5 0Z" fill="url(#gradient_1)" />
      <path d="M0.705078 7.75L0.705078 1.93164L1.375 1.93164L1.375 4.08008L1.43164 4.08008Q1.50586 3.9668 1.63672 3.78906Q1.76953 3.61133 2.01758 3.4707Q2.26758 3.33008 2.69336 3.33008Q3.24414 3.33008 3.66406 3.60547Q4.08594 3.88086 4.32031 4.38672Q4.55664 4.89258 4.55664 5.58008Q4.55664 6.27344 4.32031 6.78125Q4.08594 7.28711 3.66797 7.56445Q3.25 7.8418 2.70508 7.8418Q2.2832 7.8418 2.03125 7.70117Q1.7793 7.56055 1.64258 7.38086Q1.50586 7.19922 1.43164 7.08008L1.35156 7.08008L1.35156 7.75L0.705078 7.75ZM1.36328 5.56836Q1.36328 6.31055 1.68555 6.77539Q2.00781 7.23828 2.61328 7.23828Q3.0332 7.23828 3.31641 7.01562Q3.59961 6.79297 3.74219 6.41406Q3.88672 6.0332 3.88672 5.56836Q3.88672 5.10742 3.74609 4.73828Q3.60547 4.36719 3.32227 4.15039Q3.03906 3.93164 2.61328 3.93164Q2 3.93164 1.68164 4.38477Q1.36328 4.83594 1.36328 5.56836ZM5.85174 9.38672Q5.68182 9.38672 5.54705 9.35938Q5.41424 9.33203 5.36346 9.30664L5.53338 8.7168Q5.77752 8.7793 5.96502 8.76172Q6.15252 8.74414 6.29901 8.59375Q6.44549 8.44531 6.56854 8.11328L6.69354 7.77344L5.08026 3.38672L5.80682 3.38672L7.0119 6.86328L7.05682 6.86328L8.2619 3.38672L8.98846 3.38672L7.1369 8.38672Q6.76385 9.38672 5.85174 9.38672ZM13.8981 7.8418Q13.2848 7.8418 12.8414 7.55273Q12.3981 7.26172 12.1578 6.75391Q11.9196 6.24414 11.9196 5.5918Q11.9196 4.92578 12.1657 4.41602Q12.4118 3.90625 12.8532 3.61914Q13.2946 3.33008 13.8864 3.33008Q14.3473 3.33008 14.7164 3.5Q15.0856 3.66992 15.32 3.97656Q15.5563 4.2832 15.6129 4.69336L14.943 4.69336Q14.8668 4.39453 14.6032 4.16406Q14.3414 3.93164 13.8981 3.93164Q13.3102 3.93164 12.9508 4.37891Q12.5914 4.82617 12.5914 5.56836Q12.5914 6.32617 12.945 6.7832Q13.3004 7.23828 13.8981 7.23828Q14.2907 7.23828 14.57 7.03711Q14.8493 6.83594 14.943 6.47656L15.6129 6.47656Q15.5563 6.86328 15.3336 7.17188Q15.111 7.48047 14.7457 7.66211Q14.3805 7.8418 13.8981 7.8418ZM17.2605 5.125L17.2605 7.75L16.5906 7.75L16.5906 1.93164L17.2605 1.93164L17.2605 4.06836L17.3191 4.06836Q17.4714 3.73047 17.78 3.53125Q18.0886 3.33008 18.6023 3.33008Q19.2722 3.33008 19.6804 3.73438Q20.0906 4.13672 20.0906 4.97656L20.0906 7.75L19.4206 7.75L19.4206 5.02344Q19.4206 4.50195 19.1511 4.2168Q18.8835 3.93164 18.4089 3.93164Q17.9128 3.93164 17.5866 4.24414Q17.2605 4.55469 17.2605 5.125ZM21.3178 7.75L21.3178 3.38672L21.9877 3.38672L21.9877 7.75L21.3178 7.75ZM21.6596 2.6582Q21.4624 2.6582 21.3217 2.52539Q21.1811 2.39258 21.1811 2.20508Q21.1811 2.01758 21.3217 1.88477Q21.4624 1.75 21.6596 1.75Q21.8549 1.75 21.9956 1.88477Q22.1362 2.01758 22.1362 2.20508Q22.1362 2.39258 21.9956 2.52539Q21.8549 2.6582 21.6596 2.6582ZM23.2156 9.38672L23.2156 3.38672L23.864 3.38672L23.864 4.08008L23.9441 4.08008Q24.0163 3.9668 24.1491 3.78906Q24.282 3.61133 24.53 3.4707Q24.7781 3.33008 25.2038 3.33008Q25.7566 3.33008 26.1765 3.60547Q26.5964 3.88086 26.8327 4.38672Q27.0691 4.89258 27.0691 5.58008Q27.0691 6.27344 26.8327 6.78125Q26.5964 7.28711 26.1784 7.56445Q25.7605 7.8418 25.2156 7.8418Q24.7956 7.8418 24.5417 7.70117Q24.2898 7.56055 24.1531 7.38086Q24.0163 7.19922 23.9441 7.08008L23.8855 7.08008L23.8855 9.38672L23.2156 9.38672ZM23.8757 5.56836Q23.8757 6.31055 24.198 6.77539Q24.5202 7.23828 25.1257 7.23828Q25.5456 7.23828 25.8269 7.01562Q26.1101 6.79297 26.2527 6.41406Q26.3972 6.0332 26.3972 5.56836Q26.3972 5.10742 26.2566 4.73828Q26.1159 4.36719 25.8327 4.15039Q25.5515 3.93164 25.1257 3.93164Q24.5105 3.93164 24.1921 4.38477Q23.8757 4.83594 23.8757 5.56836ZM28.9773 1.93164L28.9206 6.11328L28.2605 6.11328L28.2038 1.93164L28.9773 1.93164ZM28.5906 7.79492Q28.3816 7.79492 28.2292 7.64453Q28.0788 7.49414 28.0788 7.2832Q28.0788 7.07422 28.2292 6.92383Q28.3816 6.77344 28.5906 6.77344Q28.8015 6.77344 28.9519 6.92383Q29.1023 7.07422 29.1023 7.2832Q29.1023 7.49414 28.9519 7.64453Q28.8015 7.79492 28.5906 7.79492ZM31.2045 1.93164L31.1479 6.11328L30.4877 6.11328L30.4311 1.93164L31.2045 1.93164ZM30.8178 7.79492Q30.6088 7.79492 30.4565 7.64453Q30.3061 7.49414 30.3061 7.2832Q30.3061 7.07422 30.4565 6.92383Q30.6088 6.77344 30.8178 6.77344Q31.0288 6.77344 31.1792 6.92383Q31.3295 7.07422 31.3295 7.2832Q31.3295 7.49414 31.1792 7.64453Q31.0288 7.79492 30.8178 7.79492ZM34.5803 1.93164L34.5803 7.75L33.8752 7.75L33.8752 2.66992L33.84 2.66992L32.4201 3.61328L32.4201 2.89844L33.8752 1.93164L34.5803 1.93164Z" fill="#000000" fill-opacity="0.012" transform="translate(32 98)" />
    </g>
    <path d="M63.0356 0L20.5356 42.5L3.53564 25.5L0 29.0356L20.5356 49.5713L66.5713 3.53564L63.0356 0L63.0356 0Z" fill="#FFFFFF" fill-rule="evenodd" transform="translate(20 28)" />
  </g>
</svg>